# xmcd
#
# Track frame offsets: 
#        182
#        26532
#        44515
#        58415
#        73417
#        91297
#        111807
#        132155
#        160307
#        179082
#        203890
#        223792
#        245000
#
# Disc length: 3617 seconds
#
# Revision: 7
# Processed by: cddbd v1.5.1PL0 Copyright (c) Steve Scherf et al.
# Submitted via: ExactAudioCopy v0.95a5
#
DISCID=cf0e1f0d
DTITLE=Various Artist - Red Hot and Blue
DYEAR=1990
DGENRE=Blues
TTITLE0=Lee Atwater - Te-Ni-Nee-Ni-Nu
TTITLE1=Lee Atwater, Chuck Jackson and Carla Thomas - Knock On Wood
TTITLE2=Sam Moore and Billy Preston - I Take What I Want
TTITLE3=Chuck Jackson and Sam Moore - Hold On, I'm Coming
TTITLE4=Chuck Jackson and Carla Thomas - Rescue Me
TTITLE5=Lee Atwater and Arletta Nightengale - Just a Little Bit - Treat
TTITLE5=Her Right
TTITLE6=Lee Atwater - Bad Boy
TTITLE7=Lee Atwater and B. B. King - Red Hot and Blue (Instrumental Vers
TTITLE7=ion)
TTITLE8=Lee Atwater, Chuck Jackson and Carla Thomas - Ya Ya
TTITLE9=B. B. King - Buzz Me
TTITLE10=Issac Hayes and Billy Preston - I'm In the Mood
TTITLE11=Lee Atwater - Life Is Like a Game
TTITLE12=Lee Atwater, Issac Hayes, Chuck Jackson, Sam Moore, Billy Pre
TTITLE12=ston and Carla Thomas - People Get Ready
EXTD=LABEL =CURB Records\nID =D2-77264\nUPC =71518-77264-20\nCOPYRI
EXTD=GHT =1990\n*****\nThis cd has two variations on the subtitle ...
EXTD=\n- on the jewel case fromt cover and jewel case spine ="All Tim
EXTD=e Great Rhythm and Blues Songs"\n- on the cd itself ="The All Time
EXTD=Great Rhythm and Blues Songs"
EXTT0=
EXTT1=
EXTT2=
EXTT3=
EXTT4=
EXTT5=
EXTT6=
EXTT7=
EXTT8=
EXTT9=
EXTT10=
EXTT11=
EXTT12=
PLAYORDER=
